<?xml version="1.0" encoding="utf-8"?>
<!-- Generator: Adobe Illustrator 16.0.3, SVG Export Plug-In . SVG Version: 6.00 Build 0)  -->
<!DOCTYPE svg PUBLIC "-//W3C//DTD SVG 1.1//EN" "http://www.w3.org/Graphics/SVG/1.1/DTD/svg11.dtd">
<svg version="1.1" id="圖層_1" xmlns="http://www.w3.org/2000/svg" xmlns:xlink="http://www.w3.org/1999/xlink" x="0px" y="0px"
	 width="2412px" height="1612px" viewBox="0 0 2412 1612" enable-background="new 0 0 2412 1612" xml:space="preserve">
<g transform="matrix(1.25,0,0,1.25,6,6)">
	<path fill="none" stroke="#FF0000" stroke-width="4" d="M155.2,155.2h-10.666v-10.666H155.2V123.2h-10.666v10.666h-10.667V123.2
		H123.2v21.334h10.666V155.2h-21.333v-10.666h-10.667V155.2H80.534v-10.666H91.2v-10.667H80.534V123.2h21.333v10.666h10.667v-32
		h-10.667v10.667H80.534v-10.667H91.2V91.2H80.534V80.533h21.333V91.2h10.667V80.533h21.333V91.2H123.2v21.334h10.666v-10.667
		h10.667v10.667H155.2V91.2h-10.666V80.533H155.2V59.2h-10.666v10.666H123.2V59.2h10.666V48.533H123.2V37.866h21.334v10.667H155.2
		V27.2h-10.666V16.533H155.2V-4.8h-10.666V5.866h-10.667V-4.8H123.2v21.334h10.666V27.2h-32V16.533h10.667V-4.8h-10.667V5.866H91.2
		V-4.8H80.534v21.334H91.2V27.2H80.534v21.334H91.2V37.866h21.334v10.667h-10.667V59.2h10.667v10.666H91.2V59.2H80.534v10.666
		H69.866V59.2H59.2v10.666H37.866V59.2h10.667V48.533H37.866V37.866H59.2v10.667h10.666V27.2H59.2V16.533h10.666V-4.8H59.2V5.866
		H48.534V-4.8H37.866v21.334h10.667V27.2h-32V16.533H27.2V-4.8H16.534V5.866H5.866V-4.8H-4.8v21.334H5.866V27.2H-4.8v21.334H5.866
		V37.866H27.2v10.667H16.534V59.2H27.2v10.666H5.866V59.2H-4.8v21.334H5.866V91.2H-4.8v21.334H5.866v-10.667h10.667v10.667H27.2
		V91.2H16.534V80.533h21.333V91.2h10.667V80.533h21.333V91.2H59.2v10.666h10.666v10.667H48.534v-10.667H37.866v32h10.667V123.2
		h21.333v10.666H59.2v10.667h10.666V155.2H48.534v-10.666H37.866V155.2H16.534v-10.666H27.2V123.2H16.534v10.666H5.866V123.2H-4.8
		v21.334H5.866V155.2H-4.8"/>
</g>
</svg>
